<?xml version="1.0" encoding="UTF-8"?>
<svg width="149px" height="120px" viewBox="0 0 149 120" version="1.1" xmlns="http://www.w3.org/2000/svg" xmlns:xlink="http://www.w3.org/1999/xlink">
    <!-- Generator: sketchtool 52.4 (67378) - http://www.bohemiancoding.com/sketch -->
    <title>378BABB8-7B7B-4776-8FE3-082C6D86D82C</title>
    <desc>Created with sketchtool.</desc>
    <g id="HUGS_redesign" stroke="none" stroke-width="1" fill="none" fill-rule="evenodd">
        <g id="wm_hugs_concept01@2x" transform="translate(-847.000000, -1180.000000)">
            <g id="Group-10" transform="translate(123.000000, 1138.000000)">
                <g id="Group-22" transform="translate(614.000000, 0.000000)">
                    <g id="03" transform="translate(95.000000, 0.000000)">
                        <path d="M10,71.9209209 C10,32.1469402 67.2091868,56.7329423 104.937488,44.4399412 C142.66579,32.1469402 181.723748,101.808226 161.456385,130.115937 C152.146779,143.118794 104.937488,158.423647 86.7812368,129.574385 C69.9809309,102.879644 10,93.4251302 10,71.9209209 Z" id="Path-4" fill="#F9F2FF" fill-rule="nonzero" transform="translate(88.500000, 94.500000) rotate(127.000000) translate(-88.500000, -94.500000) "></path>
                        <g id="mortarboard" opacity="0.41" transform="translate(95.000000, 68.000000)">
                            <g id="Group-13">
                                <path d="M52.4186047,21.4883721 C51.8794666,21.4883721 51.4418605,20.9924359 51.4418605,20.3814343 L51.4418605,11.5255425 C51.4418605,10.9145408 51.8794666,10.4186047 52.4186047,10.4186047 C52.9577427,10.4186047 53.3953488,10.9145408 53.3953488,11.5255425 L53.3953488,20.3814343 C53.3953488,20.9924359 52.9578572,21.4883721 52.4186047,21.4883721 Z" id="Path" fill="#E9E9E9"></path>
                                <circle id="Oval" fill="#35DE7F" cx="52.744186" cy="23.4418605" r="3.25581395"></circle>
                                <polygon id="Path" fill="#1DCA69" points="27.0232558 21.4949418 10.4186047 14.9767442 10.4186047 35.372093 43.627907 35.372093 43.627907 14.9767442"></polygon>
                                <path d="M52.6883453,10.3340073 L27.1025229,0.0778228065 C26.8421894,-0.0259409355 26.5530457,-0.0259409355 26.2927122,0.0778228065 L0.707020097,10.3340073 C0.13407768,10.5630354 -0.14737458,11.2240786 0.0773700682,11.8108712 C0.190785291,12.1060036 0.418919359,12.3395722 0.707020097,12.4558891 L26.2928425,22.7120736 C26.5531761,22.8169057 26.8423197,22.8169057 27.1026533,22.7120736 L52.6884757,12.4558891 C53.2602449,12.2256591 53.5428704,11.5647495 53.3181257,10.9790252 C53.2045801,10.6828245 52.9764461,10.4491223 52.6883453,10.3340073 Z" id="Path" fill="#35DE7F"></path>
                            </g>
                            <path d="M45.9066541,37.627907 C44.1653739,37.6301122 42.524889,38.4492905 41.4787977,39.8418287 C40.0031915,41.8099321 40.0031915,44.5153608 41.4787977,46.4834641 C43.3130897,48.9286756 46.7822885,49.424593 49.2275788,47.5903601 C51.6728691,45.7561272 52.1688025,42.2870402 50.3345105,39.8418287 C49.2884192,38.448123 47.6479343,37.627907 45.9066541,37.627907 Z" id="Path" fill="#7200DE"></path>
                            <path d="M41.7578271,46.483695 C40.2666433,44.5155403 40.2666433,41.8100411 41.7578271,39.8418864 C42.8149616,38.4493119 44.4727647,37.6301123 46.2325581,37.627907 L8.19799946,37.627907 C5.10931548,37.627907 2.60465116,40.1063912 2.60465116,43.1627907 C2.60465116,46.2191901 5.10931548,48.6976744 8.19799946,48.6976744 L9.42857017,48.6976744 C9.27977953,47.9670755 9.27977953,47.2142939 9.42857017,46.483695 C10.04379,43.4882653 12.9960061,41.5521521 16.0230763,42.1609413 C18.2246534,42.6036853 19.9439391,44.3051299 20.3914909,46.483695 C20.5402815,47.2142939 20.5402815,47.9670755 20.3914909,48.6976744 L46.2325581,48.6976744 C44.4717159,48.6954691 42.8149616,47.8752317 41.7578271,46.483695 Z" id="Path" fill="#7200DE"></path>
                            <path d="M20.0756141,46.6139213 C19.4667928,43.6230777 16.5452808,41.6899289 13.5496931,42.297786 C11.3710131,42.7398522 9.66960852,44.4386917 9.22671145,46.6139213 C9.07946828,47.3434016 9.07946828,48.0950306 9.22671145,48.8245109 C9.38835461,49.6269134 9.72824633,50.3829462 10.2230353,51.0351006 C12.0440506,53.476632 15.502384,53.9828126 17.9479179,52.1646812 C18.3774528,51.8441088 18.7582094,51.4639553 19.0792903,51.0351006 C19.5740792,50.3829462 19.913971,49.6270429 20.0756141,48.8245109 C20.2228573,48.0950306 20.2228573,47.3434016 20.0756141,46.6139213 Z" id="Path" fill="#E9EAEF"></path>
                            <path d="M16.6046109,53.0278402 C14.1819611,54.038248 11.3468117,53.323014 9.76744186,51.3023256 L9.76745555,59.9842023 C9.7651854,60.4237202 10.0454821,60.8187267 10.4740061,60.9826557 C10.8978563,61.1530706 11.3879415,61.0629033 11.7160448,60.7547575 L14.3255146,58.2586877 L16.9349844,60.7547575 C17.1503815,60.9565847 17.4409606,61.0695164 17.7440923,61.0695164 C17.893388,61.0728229 18.0414819,61.0434455 18.1771567,60.9826557 C18.6056807,60.8187267 18.8859774,60.4237202 18.8837072,59.9842023 L18.8837209,51.3023256 C18.2899964,52.0521512 17.5059937,52.6458055 16.6046109,53.0278402 Z" id="Path" fill="#31DB7B"></path>
                        </g>
                    </g>
                </g>
            </g>
        </g>
    </g>
</svg>