<?xml version="1.0" encoding="UTF-8"?>
<svg width="157px" height="103px" viewBox="0 0 157 103" version="1.1" xmlns="http://www.w3.org/2000/svg" xmlns:xlink="http://www.w3.org/1999/xlink">
    <!-- Generator: sketchtool 52.4 (67378) - http://www.bohemiancoding.com/sketch -->
    <title>3C5BDE09-2A40-499C-82CC-416D761984D8</title>
    <desc>Created with sketchtool.</desc>
    <g id="HUGS_redesign" stroke="none" stroke-width="1" fill="none" fill-rule="evenodd">
        <g id="wm_hugs_concept01@2x" transform="translate(-537.000000, -1181.000000)">
            <g id="Group-10" transform="translate(123.000000, 1138.000000)">
                <g id="Group-21" transform="translate(307.000000, 23.000000)">
                    <g id="02" transform="translate(107.000000, 20.000000)">
                        <path d="M0,28.9209209 C4.77559161e-13,-10.8530598 57.2091868,13.7329423 94.9374883,1.43994124 C132.66579,-10.8530598 171.723748,58.8082263 151.456385,87.1159365 C142.146779,100.118794 94.9374883,115.423647 76.7812368,86.5743846 C59.9809309,59.8796438 -2.55849997e-13,50.4251302 0,28.9209209 Z" id="Path-4" fill="#F9F2FF" fill-rule="nonzero"></path>
                        <g id="050-house-1" opacity="0.413876488" transform="translate(74.000000, 24.000000)">
                            <polyline id="Path" fill="#9A36F8" points="16.6240351 40.4134016 16.6240351 53.9554483 10.9426803 53.9554483 10.9426803 40.4112476"></polyline>
                            <polyline id="Path" fill="#9E9E9E" points="13.4767934 40.4134016 13.4767934 53.9554483 10.9426803 53.9554483 10.9426803 40.4112476"></polyline>
                            <ellipse id="Oval" fill="#1DCA69" cx="13.7832943" cy="21.716462" rx="13.7832943" ry="21.6685673"></ellipse>
                            <path d="M13.7832943,43.3854094 C6.17031189,43.3854094 0,33.6834308 0,21.7168421 C0,9.75025341 6.17031189,0.0482748538 13.7832943,0.0482748538 C10.4127973,0.0482748538 7.68178363,9.75025341 7.68178363,21.7168421 C7.68178363,33.6834308 10.4127973,43.3854094 13.7832943,43.3854094 Z" id="Path" fill="#35DE7F"></path>
                            <polygon id="Path" fill="#E9EAEF" points="59.3866862 29.6341715 59.3866862 57.2229337 23.1922027 57.2229337 23.1922027 29.6341715 41.3914425 11.9798928"></polygon>
                            <polyline id="Path" fill="#9EB1B7" points="50.5304678 19.8935478 50.5304678 14.7974464 59.579152 14.7974464 59.579152 28.5109259"></polyline>
                            <polyline id="Path" fill="#879BA0" points="50.5304678 19.8935478 50.5304678 14.7974464 52.7035965 14.7974464 52.7035965 28.5109259"></polyline>
                            <g id="Group" transform="translate(0.000000, 51.315789)" fill="#1DCA69">
                                <path d="M44.8796491,0.12619883 L63.0159162,0.12619883 C64.0417251,0.12619883 64.8734211,0.957768031 64.8734211,1.9837037 L64.8734211,5.90739766 L43.0221442,5.90739766 L43.0221442,1.9837037 C43.0221442,0.957768031 43.8537135,0.12619883 44.8796491,0.12619883 Z" id="Path"></path>
                                <path d="M1.85750487,0.12619883 L22.8939376,0.12619883 C23.9197466,0.12619883 24.7514425,0.957768031 24.7514425,1.9837037 L24.7514425,5.90739766 L0,5.90739766 L0,1.9837037 C0,0.957768031 0.831569201,0.12619883 1.85750487,0.12619883 Z" id="Path"></path>
                            </g>
                            <polygon id="Path" fill="#D2D4D8" points="59.3866862 30.7172515 59.3866862 35.8740448 41.2894444 18.5949415 23.1922027 35.8740448 23.1922027 30.7172515 39.8520955 14.8502827 41.2894444 13.5151852 42.725653 14.8502827"></polygon>
                            <polygon id="Path" fill="#7200DE" points="41.2889376 15.7251852 20.684191 35.3975049 17.8030312 32.9788207 39.8523489 11.9798928 41.2889376 10.6454288 42.7257797 11.9798928 64.7750975 32.9788207 61.8939376 35.3975049"></polygon>
                            <rect id="Rectangle" fill="#9A36F8" x="27.6195517" y="36.552807" width="11.9361793" height="20.6697466"></rect>
                            <path d="M40.4155556,57.2229337 L38.697807,57.2229337 L38.697807,37.4113645 L28.4789961,37.4113645 L28.4789961,57.2229337 L26.7613743,57.2229337 L26.7613743,36.5525536 C26.7613743,36.0781676 27.1457992,35.6937427 27.6201852,35.6937427 L39.5567446,35.6937427 C40.0311306,35.6937427 40.4155556,36.0781676 40.4155556,36.5525536 L40.4155556,57.2229337 Z" id="Path" fill="#7200DE"></path>
                            <rect id="Rectangle" fill="#E9E9E9" x="43.0227778" y="36.552807" width="13.5931092" height="11.9361793"></rect>
                            <rect id="Rectangle" fill="#9A36F8" x="43.0227778" y="36.552807" width="13.5931092" height="3.62707602"></rect>
                            <g id="Group" transform="translate(34.210526, 35.604288)">
                                <path d="M22.404347,13.7437622 L8.81161793,13.7437622 C8.33723197,13.7437622 7.95280702,13.3593372 7.95280702,12.8849513 L7.95280702,0.948518519 C7.95280702,0.474132554 8.33723197,0.0897076023 8.81161793,0.0897076023 L22.4044737,0.0897076023 C22.8788596,0.0897076023 23.2632846,0.474132554 23.2632846,0.948518519 L23.2632846,12.8849513 C23.2631579,13.3590838 22.8787329,13.7437622 22.404347,13.7437622 Z M9.67042885,12.0261404 L21.5456628,12.0261404 L21.5456628,1.80732943 L9.67042885,1.80732943 L9.67042885,12.0261404 Z" id="Shape" fill="#7200DE" fill-rule="nonzero"></path>
                                <path d="M2.66373294,12.0760624 L0.931159844,12.0760624 C0.456773879,12.0760624 0.0723489279,11.6916374 0.0723489279,11.2172515 C0.0723489279,10.7428655 0.456773879,10.3584405 0.931159844,10.3584405 L2.66373294,10.3584405 C3.13811891,10.3584405 3.52254386,10.7428655 3.52254386,11.2172515 C3.52254386,11.6916374 3.1379922,12.0760624 2.66373294,12.0760624 Z" id="Path" fill="#E9E9E9"></path>
                            </g>
                            <circle id="Oval" fill="#9A36F8" cx="41.2893177" cy="27.3291423" r="3.32032164"></circle>
                            <rect id="Rectangle" fill="#7200DE" x="43.0227778" y="39.3208187" width="13.5931092" height="1.71762183"></rect>
                            <path d="M41.2894444,31.5090351 C38.9847953,31.5090351 37.1098051,29.6340448 37.1098051,27.3293957 C37.1098051,25.0247466 38.9846686,23.1497563 41.2894444,23.1497563 C43.5942203,23.1497563 45.4692105,25.0247466 45.4692105,27.3293957 C45.4690838,29.6340448 43.5940936,31.5090351 41.2894444,31.5090351 Z M41.2894444,24.8673782 C39.9320468,24.8673782 38.8274269,25.9718713 38.8274269,27.3293957 C38.8274269,28.6869201 39.9319201,29.7914133 41.2894444,29.7914133 C42.6469688,29.7914133 43.7515887,28.6869201 43.7515887,27.3293957 C43.7515887,25.9718713 42.6469688,24.8673782 41.2894444,24.8673782 Z" id="Shape" fill="#7200DE" fill-rule="nonzero"></path>
                            <g id="Group" transform="translate(1.647173, 48.528265)" fill="#1DCA69">
                                <path d="M4.29848928,4.56520468 C3.75112086,4.56520468 3.30752437,4.12148148 3.30752437,3.57423977 L3.30752437,1.06711501 C3.30752437,0.519873294 3.75112086,0.0761500975 4.29848928,0.0761500975 C4.8458577,0.0761500975 5.28945419,0.519873294 5.28945419,1.06711501 L5.28945419,3.57423977 C5.28945419,4.12160819 4.84573099,4.56520468 4.29848928,4.56520468 Z" id="Path"></path>
                                <path d="M1.11538986,4.56520468 C0.568021442,4.56520468 0.124424951,4.12148148 0.124424951,3.57423977 L0.124424951,1.06711501 C0.124424951,0.519873294 0.568021442,0.0761500975 1.11538986,0.0761500975 C1.66275828,0.0761500975 2.10635478,0.519873294 2.10635478,1.06711501 L2.10635478,3.57423977 C2.10635478,4.12160819 1.66275828,4.56520468 1.11538986,4.56520468 Z" id="Path"></path>
                                <path d="M18.2608187,4.56520468 C17.7134503,4.56520468 17.2698538,4.12148148 17.2698538,3.57423977 L17.2698538,1.06711501 C17.2698538,0.519873294 17.7134503,0.0761500975 18.2608187,0.0761500975 C18.8081871,0.0761500975 19.2517836,0.519873294 19.2517836,1.06711501 L19.2517836,3.57423977 C19.2517836,4.12160819 18.8083138,4.56520468 18.2608187,4.56520468 Z" id="Path"></path>
                            </g>
                        </g>
                    </g>
                </g>
            </g>
        </g>
    </g>
</svg>