<?xml version="1.0" encoding="UTF-8"?>
<svg width="166px" height="101px" viewBox="0 0 166 101" version="1.1" xmlns="http://www.w3.org/2000/svg" xmlns:xlink="http://www.w3.org/1999/xlink">
    <!-- Generator: sketchtool 52.4 (67378) - http://www.bohemiancoding.com/sketch -->
    <title>04D28E0E-9345-409E-8D0D-C2A75F43E6AD</title>
    <desc>Created with sketchtool.</desc>
    <g id="HUGS_redesign" stroke="none" stroke-width="1" fill="none" fill-rule="evenodd">
        <g id="wm_hugs_concept01@2x" transform="translate(-1144.000000, -1174.000000)">
            <g id="Group-10" transform="translate(123.000000, 1138.000000)">
                <g id="Group-23" transform="translate(920.000000, 21.000000)">
                    <g id="04" transform="translate(93.000000, 0.000000)">
                        <path d="M13,50.9209209 C13,11.1469402 70.2091868,35.7329423 107.937488,23.4399412 C145.66579,11.1469402 184.723748,80.8082263 164.456385,109.115937 C155.146779,122.118794 107.937488,137.423647 89.7812368,108.574385 C72.9809309,81.8796438 13,72.4251302 13,50.9209209 Z" id="Path-4" fill="#F9F2FF" fill-rule="nonzero" transform="translate(91.500000, 73.500000) rotate(-18.000000) translate(-91.500000, -73.500000) "></path>
                        <g id="retirement-(1)" opacity="0.41" transform="translate(95.000000, 51.114883)">
                            <circle id="Oval" fill="#35DE7F" cx="22.3076923" cy="11.4974895" r="10.7076923"></circle>
                            <circle id="Oval" fill="#1DCA69" cx="22.3076923" cy="11.4974895" r="8.92307692"></circle>
                            <path d="M22.8615275,11.0972334 L22.8615275,7.30567408 C23.487075,7.65289614 23.8744334,8.30015687 23.876945,9.00239689 C23.876945,9.5412992 24.3246553,9.97816584 24.876934,9.97816584 C25.4292127,9.97816584 25.8769231,9.5412992 25.8769231,9.00239689 C25.8747736,7.21544194 24.6348385,5.65588849 22.8615275,5.20972237 L22.8615275,4.44248918 C22.8615275,3.90358687 22.4138172,3.46672022 21.8615385,3.46672022 C21.3092598,3.46672022 20.8615494,3.90358687 20.8615494,4.44248918 L20.8615494,5.21027995 C19.0873354,5.65328284 17.846306,7.21314384 17.846306,9.00016656 C17.846306,10.7871893 19.0873354,12.3470503 20.8615494,12.7900532 L20.8615494,16.5816125 C20.2360019,16.2343905 19.8486435,15.5871297 19.846132,14.8848897 C19.846132,14.3459874 19.3984216,13.9091208 18.8461429,13.9091208 C18.2938642,13.9091208 17.8461538,14.3459874 17.8461538,14.8848897 C17.8488236,16.6714293 19.0886498,18.2303872 20.8615494,18.6764491 L20.8615494,19.4447974 C20.8615494,19.9836997 21.3092598,20.4205664 21.8615385,20.4205664 C22.4138172,20.4205664 22.8615275,19.9836997 22.8615275,19.4447974 L22.8615275,18.6742187 C24.6330165,18.2292554 25.8712048,16.6706606 25.8712048,14.8857261 C25.8712048,13.1007916 24.6330165,11.5421968 22.8615275,11.0972334 Z M19.8467034,9.00239689 C19.8489793,8.30024111 20.2361357,7.65295367 20.8615494,7.30567408 L20.8615494,10.6991197 C20.2351569,10.3512896 19.8475223,9.70286804 19.8455605,8.99960898 L19.8467034,9.00239689 Z M22.8615275,16.5810549 L22.8615275,13.1876093 C23.4888945,13.5330305 23.8769287,14.1814308 23.8769287,14.8843321 C23.8769287,15.5872334 23.4888945,16.2356338 22.8615275,16.5810549 Z" id="Shape" fill="#E5FFFF" fill-rule="nonzero"></path>
                            <path d="M11.7323918,32.9128741 C11.3784142,40.9215206 10.1058646,48.2961517 8.17550646,53.2268678 C7.74688048,54.3211886 8.30248912,55.5496415 9.41649309,55.9706942 C10.5304971,56.3917468 11.7810457,55.8459552 12.2096717,54.7516343 C14.3471067,49.2929585 15.704611,41.5039571 16.0615385,32.9128741 L11.7323918,32.9128741 Z" id="Path" fill="#7200DE"></path>
                            <path d="M38.3692308,27.9931294 C38.3692308,17.8331616 39.7901051,8.40267981 42.2673179,2.12023703 C42.6922414,1.04976171 43.9251994,0.516948345 45.0233054,0.929258145 C46.1214113,1.34156795 46.6701324,2.54335478 46.2498421,3.61556977 C43.9869251,9.3537387 42.6359299,18.4666327 42.6359299,27.9931294 C42.6359299,37.5196261 43.9869251,46.6330883 46.2498421,52.3718254 C46.5326229,53.0678641 46.4104869,53.858445 45.9299857,54.4422419 C45.4494845,55.0260389 44.6846499,55.313105 43.9269951,55.1940263 C43.1693402,55.0749477 42.5355986,54.568071 42.2673179,53.86659 C39.7901051,47.5830109 38.3692308,38.1525291 38.3692308,27.9931294 Z" id="Path" fill="#7200DE"></path>
                            <path d="M27.2151003,57.8974895 C17.0444483,57.8974895 7.60514606,56.4739602 1.31644837,53.9921187 C0.254266657,53.5602081 -0.270758714,52.3313615 0.139486831,51.2373849 C0.549732377,50.1434082 1.7422143,49.5923892 2.81270119,50.0021529 C8.55658314,52.2692983 17.6791188,53.6228179 27.2151003,53.6228179 C36.7510817,53.6228179 45.8730487,52.2692983 51.618068,50.0021529 C52.6885549,49.5923892 53.8810369,50.1434082 54.2912824,51.2373849 C54.7015279,52.3313615 54.1765026,53.5602081 53.1143209,53.9921187 C46.8244858,56.4739602 37.3846148,57.8974895 27.2151003,57.8974895 Z" id="Path" fill="#1DCA69"></path>
                            <path d="M8.48229241,28.4513377 L45.5076923,28.4513356 L45.5076923,32.9128741 L4.46153846,32.9128741 L4.46153846,32.7135677 C4.46153793,31.5824145 4.88528013,30.4976525 5.63943357,29.6982066 C6.39358701,28.8987606 7.41629206,28.4502055 8.48229241,28.4513377 Z" id="Path" fill="#1DCA69"></path>
                            <path d="M11.0858072,40.9436433 L44.6153846,40.9436433 L44.6153846,45.4051818 L7.13846154,45.4051818 L7.13846154,45.2058753 C7.13846154,42.8519096 8.90574841,40.9436433 11.0858072,40.9436433 Z" id="Path" fill="#1DCA69"></path>
                            <polygon id="Path" fill="#7200DE" transform="translate(27.215385, 36.928259) rotate(90.000000) translate(-27.215385, -36.928259) " points="23.2 34.6974895 31.2307692 34.6974895 31.2307692 39.1590279 23.2 39.1590279"></polygon>
                        </g>
                    </g>
                </g>
            </g>
        </g>
    </g>
</svg>