<?xml version="1.0" encoding="UTF-8"?>
<svg width="79px" height="104px" viewBox="0 0 79 104" version="1.1" xmlns="http://www.w3.org/2000/svg" xmlns:xlink="http://www.w3.org/1999/xlink">
    <!-- Generator: sketchtool 52.4 (67378) - http://www.bohemiancoding.com/sketch -->
    <title>31E9A267-19F8-4796-B66D-B996E7D43AB3</title>
    <desc>Created with sketchtool.</desc>
    <g id="HUGS_redesign" stroke="none" stroke-width="1" fill="none" fill-rule="evenodd">
        <g id="wm_hugs_concept01@2x" transform="translate(-682.000000, -1592.000000)" fill="rgba(255,117,73,1)" fill-rule="nonzero">
            <g id="ic_check" transform="translate(682.000000, 1592.000000)">
                <path d="M47.6225367,77.1447398 C56.1099352,81.3023511 63.5131,84.9222087 69.8320313,88.0043128 C75.3173828,92.0515133 78.0600586,97.3286943 78.0600586,103.835856 L39.2231445,103.835856 L0.163085938,103.835856 C0.702473958,95.8137203 4.35139974,90.1582841 11.1098633,86.8695472 C16.2042933,84.3905458 22.7831994,81.1586713 30.8465815,77.1739236 L30.8465806,77.1739218 C36.1312681,74.5623445 42.3287955,74.5515638 47.6225367,77.1447398 Z" id="Triangle" transform="translate(39.111572, 89.521688) rotate(-180.000000) translate(-39.111572, -89.521688) "></path>
                <path d="M35.6358573,49.8555959 L30.5455849,44.7653235 C28.9834877,43.2032263 26.4508278,43.2032263 24.8887307,44.7653235 C23.3266335,46.3274207 23.3266335,48.8600806 24.8887307,50.4221778 L34.7882256,60.3216727 L34.8099303,60.2999679 L35.4559869,60.9927788 L57.2105099,40.5873481 C58.8231438,39.0747207 58.9078734,36.5424559 57.3999582,34.9254148 C57.3973124,34.9225775 57.3946624,34.9197441 57.3920084,34.9169146 C55.8850748,33.310351 53.3610866,33.2295849 51.754523,34.7365185 L35.6358573,49.8555959 Z M11,5.68434189e-14 L67,5.68434189e-14 C73.0751322,5.57274352e-14 78,4.92486775 78,11 L78,76 L-1.42108547e-14,76 L-1.42108547e-14,11 C-1.49548438e-14,4.92486775 4.92486775,5.79594026e-14 11,5.68434189e-14 Z" id="Rectangle-2"></path>
            </g>
        </g>
    </g>
</svg>
